<?xml version="1.0" encoding="utf-8"?>
<!-- Generator: Adobe Illustrator 19.0.0, SVG Export Plug-In . SVG Version: 6.00 Build 0)  -->
<svg version="1.1" id="Camada_1" xmlns="http://www.w3.org/2000/svg" xmlns:xlink="http://www.w3.org/1999/xlink" x="0px" y="0px"
	 viewBox="0 0 101.5 111" style="enable-background:new 0 0 101.5 111;" xml:space="preserve">
<style type="text/css">
	.st0{fill:#FAFBFB;}
</style>
<g id="XMLID_27_">
	<path id="XMLID_30_" class="st0" d="M50.6,111c0,0,25.2-31.9-31.8-111c0,0,21.8,48,15.3,67.1c0,0-4.3-21.4-34.1-35.1
		c0,0,18.4,17.3,18.4,47.3C18.4,79.3,24.1,82.6,50.6,111z"/>
	<path id="XMLID_29_" class="st0" d="M82.4,0c0,0-16.9,35.9-15.6,54.5l-4.1,12.8c0,0-5.8-20.9-7.6-21.9C55,45.4,58.6,31.9,82.4,0z"
		/>
	<path id="XMLID_28_" class="st0" d="M66.6,95.3l15.8-15.5c0,0,2-30.8,19.1-47.6C101.2,31.1,68.7,47.4,66.6,95.3z"/>
</g>
</svg>
