<?xml version="1.0" encoding="utf-8"?>
<!-- Generator: Adobe Illustrator 19.0.0, SVG Export Plug-In . SVG Version: 6.00 Build 0)  -->
<svg version="1.0" id="Camada_1" xmlns="http://www.w3.org/2000/svg" xmlns:xlink="http://www.w3.org/1999/xlink" x="0px" y="0px"
	 viewBox="0 0 134.4 111.5" style="enable-background:new 0 0 134.4 111.5;" xml:space="preserve">
<style type="text/css">
	.st0{fill:#FAFBFB;}
</style>
<g id="XMLID_40_">
	<polygon id="XMLID_41_" class="st0" points="71.2,40.1 67.2,44 63.2,40.1 51.4,99.7 67.2,111.5 83,99.7 	"/>
	<polygon id="XMLID_42_" class="st0" points="82.7,0 67.2,0 51.7,0 47.2,7.6 67.2,31.9 87.2,7.6 	"/>
	<path id="XMLID_38_" class="st0" d="M90.9,24.2L79.4,35.8l7.8,28.3l20-8.3l-12-15.8h12c0,0,14.4-4.2,27.3-15.8H90.9z"/>
	<path id="XMLID_39_" class="st0" d="M43.5,24.2l11.6,11.6l-7.8,28.3l-20-8.3l12-15.8h-12c0,0-14.4-4.2-27.3-15.8H43.5z"/>
</g>
</svg>
