<?xml version="1.0" encoding="utf-8"?>
<!-- Generator: Adobe Illustrator 19.0.0, SVG Export Plug-In . SVG Version: 6.00 Build 0)  -->
<svg version="1.1" id="Camada_1" xmlns="http://www.w3.org/2000/svg" xmlns:xlink="http://www.w3.org/1999/xlink" x="0px" y="0px"
	 viewBox="0 0 197.3 170.8" style="enable-background:new 0 0 197.3 170.8;" xml:space="preserve">
<style type="text/css">
	.st0{fill:#0F0F0F;stroke:#FAFBFB;stroke-width:2;stroke-miterlimit:10;}
</style>
<g id="XMLID_1_">
	<g id="XMLID_113_">
		<path id="XMLID_39_" class="st0" d="M154.5,100.7l0.4-1.1c1.1-2.8,1.8-5.7,2.3-8.7l0-0.3l0.3-0.1c6.4-1.8,13.2-0.1,15.5,0.5
			c-4-29.7,10.8-61.4,12.7-65.2l-17.5-13.2l-12.5,13.9c1.6,20.3-23.2,41.1-25.5,43l-0.3,1.5l-0.7-1c-1.3-1.8-2.6-3.2-4.1-4.2
			l-0.3-0.2l1-3.2l0.2-0.1c9-5.5,23.7-17.8,21.8-38.4l0-0.2l0.2-0.2l20.8-22.3l27.2,20.5l-0.2,0.4c-0.2,0.3-19.6,31.3-12.9,77.2
			l0.1,0.8l-0.8-0.3c-0.1,0-15.1-4.9-26.5,0.2L154.5,100.7z M158.1,91.3c-0.4,2.6-1,5.1-1.9,7.5c10.1-4,22.3-1,25.4-0.1
			c-6-43,10.7-72.9,12.9-76.7L168.8,2.7l-20,21.5c1.8,20.9-13,33.4-22.2,39l-0.6,2.1c1.2,0.9,2.4,2.1,3.5,3.5
			c1.7-1.4,27-22.6,25.2-42.4l0-0.2l13.4-14.9L187,25.4l-0.2,0.4c-0.2,0.3-17.2,34.3-12.6,65.7l0.1,0.8l-0.8-0.3
			C173.4,92.1,165.4,89.4,158.1,91.3z"/>
	</g>
	<g id="XMLID_127_">
		<g id="XMLID_24_">
			<path class="st0" d="M43.8,101.2l-1.2-0.6c-11.6-5.9-27.3-0.7-27.4-0.7l-0.8,0.3l0.1-0.8C21.2,53.5,1.8,22.5,1.6,22.2l-0.2-0.4
				L28.6,1.3l21,22.5l0,0.2C47.6,45.2,63,57.5,72.3,63l0.2,0.1l0.7,2.3l-0.3,0.2c-2.1,1.3-3.7,3.3-4.7,4.8l-0.7,1l-0.4-1.8
				c-2.4-1.9-27.2-22.7-25.5-43L29,12.6L11.5,25.7c1.8,3.8,16.6,35.4,12.7,65.2c2.4-0.7,9.7-2.4,16.3-0.2l0.3,0.1l0,0.3
				c0.5,3.1,1.3,6.1,2.4,8.9L43.8,101.2z M29.3,96.8c4.1,0,8.6,0.6,12.6,2.4c-0.9-2.5-1.6-5-2-7.7c-7.5-2.3-16.1,0.5-16.2,0.6
				L23,92.3l0.1-0.8c4.6-31.4-12.5-65.4-12.6-65.7l-0.2-0.4l18.9-14.2l13.4,14.9l0,0.2c-1.8,20.4,25,42.3,25.3,42.5l0.1,0
				c1-1.3,2.4-2.8,4.1-4l-0.4-1.2c-9.5-5.6-25-18.2-23.2-39.6l-20-21.5L2.7,22.1c2.2,3.8,18.9,33.7,12.9,76.7
				C17.6,98.2,23,96.8,29.3,96.8z"/>
		</g>
	</g>
	<g id="XMLID_141_">
		<g id="XMLID_25_">
			<path class="st0" d="M129.6,162.6l-3.4-3.7l19.4-34.1l-15.9-10l1.1-1.5c0.1-0.1,0.1-0.2,0.2-0.3l0.4-0.6l22,9.5L129.6,162.6z
				 M127.5,158.7l2,2.2l22.5-38.5l-20.7-8.9l-0.6,0.8l16.3,10.2L127.5,158.7z"/>
		</g>
	</g>
	<g id="XMLID_143_">
		<g id="XMLID_18_">
			<path class="st0" d="M121.9,168.5l-9.1-22l4.4-5.4l5.2,12.7l15.2-26.7l-12.1-7.6l0.4-0.4c1.4-1.4,2.7-3,3.9-4.6l0.3-0.5
				l16.7,10.5L121.9,168.5z M114,146.6l8.1,19.6l23.6-41.4l-15.5-9.8c-1,1.4-2.2,2.7-3.4,4l12.3,7.7l-16.7,29.4L117,143L114,146.6z"
				/>
		</g>
	</g>
	<g id="XMLID_145_">
		<g id="XMLID_19_">
			<path class="st0" d="M65.1,162.6l-23.8-40.7l24.4-10.6l0.2,0.4c0.3,0.4,0.6,0.9,0.8,1.3l0.3,0.4l-18.1,11.4l19.4,34.1L65.1,162.6
				z M42.8,122.4l22.5,38.5l2-2.2l-19.5-34.3l18-11.3c-0.1-0.2-0.2-0.4-0.3-0.5L42.8,122.4z"/>
		</g>
	</g>
	<g id="XMLID_146_">
		<g id="XMLID_15_">
			<path class="st0" d="M72.8,168.5l-25.1-44.1l19.1-12.2l1.3,1.8c0.8,1.1,1.8,2.3,2.7,3.4l0.4,0.4L57,127l15.2,26.7l6.4-15.4
				l4.4,5.4L72.8,168.5z M49.1,124.8l23.6,41.4l9.2-22.3l-3-3.6l-6.5,15.8l-16.7-29.4l14.1-9c-0.9-1-1.7-2-2.4-3l-0.2-0.3l0,0
				l-0.5-0.7L49.1,124.8z"/>
		</g>
	</g>
	<g id="XMLID_148_">
		<g id="XMLID_12_">
			<path class="st0" d="M93.6,158.2l-22.8-27.8l7.1-6.8l0.3,0.2c0.6,0.4,1,0.5,1.6,0.9l0.3,0.2l4-3.7l0.3,0.2c0.5,0.3,1.4,1,1.9,1.2
				L87,123l-7.1,7.8l9.2,11.5v-18.5l0.7,0.2c1.1,0.4,2.3,0.7,3.4,0.9l0.4,0.1V158.2z M84.8,121.3l-4.6,4.9l-1-0.6
				c-0.5-0.3-0.8-0.3-1.3-0.7l-5.8,5.6l20.4,24.9v-30.6c-0.8-0.2-1.7-0.4-2.5-0.6v21l-11.5-14.5l7.8-8.4"/>
		</g>
	</g>
	<g id="XMLID_150_">
		<g id="XMLID_9_">
			<path class="st0" d="M104.5,158.2v-33.8l0.4-0.1c1.1-0.2,2.3-0.5,3.4-0.9l0.7-0.2v19.1l9.2-11.5l-7.1-7.8l0.6-0.3
				c0.5-0.2,1.2-0.9,1.7-1.2l0.3-0.2l4.3,4l0.1-0.3c0.6-0.4,1-0.7,1.7-1.2l0.3-0.2l7.2,6.9L104.5,158.2z M105.5,125.2v30.2
				l20.4-24.9l-5.9-5.7c-0.6,0.4-0.9,0.6-1.4,1l-0.5,0.3l-4.5-4c-0.2,0.1-1,0.6-1.3,0.7l7.2,7.9L108,145.2v-20.6
				C107.1,124.8,106.3,125.1,105.5,125.2z"/>
		</g>
	</g>
	<g id="XMLID_152_">
		<g id="XMLID_6_">
			<path class="st0" d="M150.2,109.9h-17.8l0.4-0.7c2.5-4.7,4.2-10,5.1-15.8l0.3-1.9c0-0.4,0.1-0.7,0.1-1.1l0-0.4l0.4-0.1
				c4.3-0.8,8.9-2.2,12.5-4.1c0.4-0.2,0.7-0.4,1.1-0.6c0.8-0.4,1.5-0.9,2.2-1.3c2.1-1.4,3.2-2.5,3.2-2.5l0.8-0.8l0.1,1.1
				c0,0.5,0,1,0.1,1.5c0,0.9,0,1.9,0,2.9v0c-0.1,1.7-0.2,3.3-0.5,4.9c-0.5,3.1-1.2,6.1-2.3,8.9c-2.4,6.2-5.4,9.6-5.5,9.8
				L150.2,109.9z M134.1,108.9h15.7c0.6-0.8,3.1-4,5.2-9.3c1.1-2.8,1.8-5.7,2.3-8.7c0.2-1.6,0.4-3.2,0.4-4.8l0,0c0-1,0-1.9,0-2.8
				c0-0.2,0-0.3,0-0.5c-0.6,0.5-1.4,1.2-2.6,1.9c-0.7,0.5-1.4,0.9-2.2,1.4c-0.3,0.2-0.7,0.4-1.1,0.6c-3.7,2-8.2,3.3-12.4,4.1
				l-0.4,2.6C138.1,99.1,136.4,104.2,134.1,108.9z"/>
		</g>
	</g>
	<g id="XMLID_153_">
		<g id="XMLID_3_">
			<path class="st0" d="M64.9,109.8H47.8l-0.1-0.2c-0.1-0.1-3-3.4-5.3-9.3c-1.2-2.9-2-6-2.5-9.1c-0.3-1.6-0.4-3.3-0.5-4.9
				c0-0.9,0-1.9,0-2.8c0-0.6,0-1.2,0.1-1.8l0.1-1.1l0.8,0.8c0,0,0.9,0.9,2.7,2.2c0.7,0.5,1.4,0.9,2.1,1.4c0.1,0.1,0.3,0.2,0.4,0.2
				l0.2,0.1c3.9,2.2,8.2,3.8,12.9,4.6L59,90l0,0.4c0,0.4,0.1,0.7,0.1,1.1l0.3,1.9c0.9,5.7,2.6,11,5.1,15.8L64.9,109.8z M48.3,108.8
				h15.5c-2.4-4.6-4.1-9.9-4.9-15.4l-0.3-2.5c-4.6-0.9-9.5-2.5-13.4-4.8L45,86c-0.1-0.1-0.3-0.2-0.4-0.2c-0.8-0.5-1.5-0.9-2.2-1.4
				c-0.9-0.6-1.5-1.2-2-1.5c0,0.2,0,0.5,0,0.7c0,0.9,0,1.9,0,2.8c0.1,1.6,0.2,3.2,0.5,4.8c0.5,3.1,1.3,6.1,2.4,8.9
				C45.3,105,47.7,108.1,48.3,108.8z"/>
		</g>
	</g>
	<g id="XMLID_155_">
		<path id="XMLID_34_" class="st0" d="M64.4,81.1L64.4,81.1c0.1-0.1,0.1-0.2,0.2-0.3C64.5,80.9,64.5,81,64.4,81.1z"/>
	</g>
	<g id="XMLID_157_">
		<path id="XMLID_35_" class="st0" d="M65.8,82.8l-2-1.6l0.4-0.6c0.5-0.7,0.9-1.2,1.2-1.6l0-5.8c0-0.1,0.7-1.6,1.9-3.4
			c1-1.5,2.7-3.6,5-5.1l0.5-0.3l1.2,3.8l-0.3,0.2c-3.2,2.1-5.1,5.3-5.4,5.9v5.3L68,79.8c-0.3,0.1-0.9,0.7-2,2.5L65.8,82.8z M65.1,81
			l0.4,0.3c0.7-1.1,1.3-1.9,1.8-2.3v-5l0.1-0.1c0.1-0.2,2-3.7,5.5-6.2l-0.6-1.8c-1.9,1.3-3.3,3.1-4.2,4.4c-1,1.5-1.6,2.8-1.8,3.2
			v5.9l-0.1,0.1C65.9,79.9,65.5,80.3,65.1,81z"/>
	</g>
	<g id="XMLID_160_">
		<path id="XMLID_14_" class="st0" d="M132.9,80.8c0.1,0.2,0.2,0.3,0.3,0.5l0,0C133.1,81.1,133,80.9,132.9,80.8z"/>
	</g>
	<g id="XMLID_161_">
		<path id="XMLID_31_" class="st0" d="M131.8,83l-0.3-0.5c-1.1-2-1.8-2.6-2.1-2.7l-0.3-0.1v-5.3c-0.3-0.6-2.1-3.5-5-5.6l-0.3-0.2
			l1.2-3.8l0.6,0.4c1.6,1.1,3,2.6,4.3,4.5c1.4,2,2.1,3.6,2.1,3.7l0,0.2V79c0.3,0.4,0.7,0.8,1.1,1.5c0.1,0.2,0.2,0.3,0.3,0.5l0.2,0.4
			L131.8,83z M130.2,79c0.6,0.4,1.2,1.2,1.9,2.4l0.4-0.3c0,0,0-0.1-0.1-0.1c-0.5-0.7-0.9-1.2-1.2-1.5l-0.1-0.1v-5.9
			c-0.2-0.4-0.8-1.8-2-3.4c-1.1-1.6-2.3-2.9-3.5-3.8l-0.6,1.8c3.2,2.5,5,5.7,5,5.8l0.1,0.1V79z"/>
	</g>
	<g id="XMLID_2_">
		<polyline class="st0" points="131,113.8 130.8,114.2 130.8,114.2 		"/>
	</g>
	<g id="XMLID_166_">
		<path class="st0" d="M139.1,92.7l-0.4,0.2c-0.3,0.1-0.5,0.3-0.8,0.4c0,0,0.1,0,0.1,0c-0.9,6.1-3,13.2-7.6,19.8l-2.9-0.5l2.4,0.6
			l1.4,0.4c0.1-0.2,0.2-0.4,0.3-0.5c0.8-1.2,1.5-2.4,2.2-3.7c2.5-4.8,4.3-10.1,5.2-15.9L139.1,92.7z"/>
	</g>
	<g id="XMLID_167_">
		<path class="st0" d="M139.1,92.6l0.2-1.1l0,0c0,0.2-0.1,0.4-0.1,0.7L139.1,92.6z"/>
	</g>
	<g id="XMLID_168_">
		<path class="st0" d="M128.9,96.6C128.9,96.6,128.9,96.6,128.9,96.6c2-0.5,4.9-1.3,7.8-2.7C133.8,95.2,130.9,96,128.9,96.6z"/>
	</g>
	<g id="XMLID_169_">
		<path class="st0" d="M136.9,93.8c0.2-0.1,0.3-0.1,0.5-0.2C137.2,93.6,137,93.7,136.9,93.8z"/>
	</g>
	<g id="XMLID_171_">
		<path class="st0" d="M124.4,111.7c-0.2,0.3-0.4,0.6-0.6,0.9l5.7,1.5c-2.9,4-6.7,7.7-11.7,10.9l-3.6-3.3c-0.3,0.2-0.6,0.4-0.9,0.5
			l3.8,3.5l0.6,0.5l0.6-0.4c0.7-0.5,1.4-0.9,2.1-1.4c2.2-1.5,4.2-3.3,6-5.1c1.4-1.5,2.7-3,3.9-4.6l0.1-0.1l0.2-0.5l0.3-0.3l0.2-0.3
			l0,0l-1.4-0.4l-2.4-0.6L124.4,111.7z"/>
	</g>
	<g id="XMLID_173_">
		<path class="st0" d="M139.6,84.8c0-1.1,0-2.1-0.1-3c-0.1-2.1-0.3-3.3-0.3-3.4l-0.3-1.7l-1.3,1.1l-0.5,0.4l-2.1,1.7l-1.9,1.5l0,0
			l-1.2,1l-0.7,0.6l-0.6,0.5l-3.5,2.8c0.1,0.3,0.2,0.7,0.3,1l10.8-8.5c0,0,0.9,5.7-0.1,13.5c-3.3,1.8-6.8,2.9-9.3,3.5
			c0,0.2,0,0.4,0,0.6c0,0.2,0,0.3,0,0.5c2.1-0.5,4.9-1.4,7.8-2.7c0.1,0,0.2-0.1,0.3-0.1c0.2-0.1,0.3-0.2,0.5-0.2
			c0.2-0.1,0.3-0.2,0.5-0.3c0.3-0.1,0.5-0.3,0.8-0.4l0.4-0.2l0,0l0-0.1l0.1-0.4c0-0.2,0.1-0.4,0.1-0.7c0-0.4,0.1-0.7,0.1-1.1
			c0.1-0.9,0.2-1.7,0.2-2.5C139.6,86.8,139.6,85.7,139.6,84.8z"/>
	</g>
	<g id="XMLID_175_">
		<path class="st0" d="M66.6,113.5l1.4-0.4l2.4-0.6l-2.9,0.5c-4.6-6.7-6.7-13.7-7.6-19.8c0,0,0.1,0,0.1,0.1
			c-0.3-0.1-0.5-0.3-0.8-0.4l-0.4-0.2l0.1,0.7c0.9,5.8,2.6,11.2,5.2,15.9c0.5,0.9,1,1.8,1.5,2.6c0.3,0.4,0.6,0.9,0.9,1.3
			C66.5,113.4,66.6,113.5,66.6,113.5z"/>
	</g>
	<g id="XMLID_176_">
		<polygon class="st0" points="67.1,114.2 67.1,114.2 66.8,113.8 		"/>
	</g>
	<g id="XMLID_178_">
		<path class="st0" d="M69.1,96.6C69.1,96.6,69.1,96.6,69.1,96.6c-2.1-0.5-5-1.4-7.9-2.7C64.1,95.2,67.1,96.1,69.1,96.6z"/>
	</g>
	<g id="XMLID_179_">
		<path class="st0" d="M60.5,93.5c0.2,0.1,0.3,0.2,0.5,0.2C60.8,93.7,60.6,93.6,60.5,93.5z"/>
	</g>
	<g id="XMLID_181_">
		<path class="st0" d="M70.4,112.5l-2.4,0.6l-1.4,0.4l0,0l0.2,0.3l0.3,0.4l0.4,0.6c0.9,1.2,1.8,2.3,2.8,3.4c2.2,2.4,4.6,4.5,7.3,6.5
			c0.6,0.4,1.3,0.9,1.9,1.3l0.6,0.4l0.6-0.5l3.9-3.5c-0.3-0.2-0.6-0.3-0.9-0.5L80,125c-5-3.2-8.8-6.9-11.7-10.9l5.8-1.5
			c-0.2-0.3-0.4-0.6-0.6-0.9L70.4,112.5z"/>
	</g>
	<g id="XMLID_183_">
		<path class="st0" d="M67,83.1l-0.6-0.4L65.6,82l-1.2-1l0,0l-2-1.6l-2.1-1.7l-0.1-0.1l-1.3-1.1l-0.3,1.7c0,0.1-0.2,1.3-0.3,3.2
			c0,0.9-0.1,2-0.1,3.2c0,1,0,2.1,0.1,3.3c0,0.7,0.1,1.5,0.2,2.3c0,0.4,0.1,0.7,0.1,1.1c0,0.2,0.1,0.4,0.1,0.7l0.1,0.4l0,0.1l0,0
			l0.4,0.2c0.3,0.1,0.5,0.3,0.8,0.4c0.2,0.1,0.3,0.2,0.5,0.2c0.2,0.1,0.3,0.2,0.5,0.2c0.1,0,0.2,0.1,0.3,0.1
			c2.9,1.3,5.8,2.2,7.9,2.7c0-0.2,0-0.3,0-0.5c0-0.2,0-0.4,0-0.5c-2.5-0.6-6.1-1.7-9.4-3.5c-1-7.8-0.1-13.5-0.1-13.5l10.9,8.6
			c0.1-0.3,0.2-0.7,0.3-1L67,83.1z"/>
	</g>
	<g id="XMLID_185_">
		<polygon class="st0" points="90.8,50 99,58.1 107.2,50 107.2,48.6 107.1,48.7 99,56.7 90.9,48.7 90.8,48.6 		"/>
	</g>
	<g id="XMLID_186_">
		<polygon class="st0" points="100.5,65.2 99,66.7 97.4,65.2 97.4,65.2 97.4,65.2 99,66.7 100.5,65.2 101.4,60.5 101.5,60.3 
			101.5,60.4 		"/>
	</g>
	<g id="XMLID_188_">
		<path class="st0" d="M93,75.8c0.3-0.1,0.7-0.2,1-0.3v-1.8l-3.2-5.3v2l2.2,3.6V75.8z"/>
	</g>
	<g id="XMLID_189_">
		<path class="st0" d="M104.6,75.8c0.3,0.1,0.7,0.2,1,0.3v-2l1.6-3.1v-2.2l-2.6,5V75.8z"/>
	</g>
	<g id="XMLID_190_">
		<polygon class="st0" points="95.7,60.9 96.5,65.6 99,68.1 101.4,65.6 102.4,60.7 107.2,55.9 107.2,54.5 107.1,54.7 101.7,60 
			101.5,60.2 101.5,60.3 101.4,60.5 100.5,65.2 99,66.7 97.4,65.2 97.4,65.2 96.7,60.7 96.6,60.4 96.4,60.2 90.9,54.7 90.8,54.6 
			90.8,56 		"/>
	</g>
	<g id="XMLID_192_">
		<path id="XMLID_38_" class="st0" d="M73.5,67.9l0.8,2.7l1.9,6.1c0.3-0.3,0.5-0.6,0.8-0.9l-8.3-27L89.8,28v45.8l1,1.1v-4.4v-2V56
			v-1.4V50v-1.4v-23l-23.4,23l4.6,14.9l0.5,1.7L73.5,67.9z"/>
	</g>
	<g id="XMLID_194_">
		<path id="XMLID_44_" class="st0" d="M72.3,51.8l6.2,22H79c0.4-0.3,0.1-0.7,0.5-1h-0.2l-5.9-20.7L85,40.8v22.5l1,2.1v-27L72.3,51.8
			z"/>
	</g>
	<g id="XMLID_196_">
		<path id="XMLID_42_" class="st0" d="M107.2,50v4.5v1.4v12.8v2.2V74l1-0.8V28l21.2,20.9L121.1,76c0.3,0.3,0.5,0.6,0.8,0.9l1.7-5.6
			l0.9-3l0.9-2.8l0.8-2.6l4.4-14.3l-23.4-23v23V50z"/>
	</g>
	<g id="XMLID_198_">
		<path id="XMLID_43_" class="st0" d="M119.5,73.8l6.2-22l-13.6-13.4v26.5l1-2.1V40.8l11.5,11.3l-5.9,20.7h-0.5
			c0.4,0.3,0.3,0.7,0.6,1H119.5z"/>
	</g>
	<g id="XMLID_200_">
		<path class="st0" d="M108.5,124.4c1.1-0.4,2.3-0.8,3.3-1.3c0.5-0.2,1-0.5,1.5-0.8c0.3-0.2,0.6-0.3,0.9-0.5
			c3.9-2.3,7.1-5.4,9.6-9.2c0.2-0.3,0.4-0.6,0.6-0.9c2.7-4.4,4.3-9.6,4.4-15.2c0,0,0,0,0,0c0-0.2,0-0.3,0-0.5c0-0.2,0-0.4,0-0.6
			c-0.1-2.9-0.5-5.8-1.4-8.5c-0.1-0.3-0.2-0.7-0.3-1c-1.2-3.4-3-6.5-5.3-9.2c-0.3-0.3-0.5-0.6-0.8-0.9c-0.7-0.8-1.4-1.5-2.2-2.2
			c-0.4-0.3-0.8-0.7-1.2-1c-0.2-0.1-0.3-0.3-0.5-0.4l0-18.5l-4.1,8.8l-1,2.1l-1.7,3.6l-2.2,4.7l-1,2.1l-0.5,1.1
			c0.3,0.1,0.6,0.2,0.9,0.4l3.7-7.9l4.9-10.5l0,14l0,0.5l0.4,0.3c7.2,5.5,11.3,13.8,11.3,22.9c0,15.9-13,28.9-28.9,28.9
			c-15.9,0-28.9-13-28.9-28.9c0-9,4.1-17.3,11.1-22.8l0.4-0.3v-0.5V58.4l4.9,10.5l3.7,7.9c0.3-0.1,0.6-0.3,0.9-0.4l-0.3-0.6l-1-2.1
			l-2.4-5.2L86,65.4l-1-2.1l-4.4-9.4v18.6c-0.1,0.1-0.2,0.2-0.4,0.3c-0.4,0.3-0.8,0.7-1.2,1c-0.7,0.7-1.4,1.3-2.1,2.1
			c-0.3,0.3-0.5,0.6-0.8,0.9c-2.3,2.7-4.2,5.9-5.4,9.4c-0.1,0.3-0.2,0.7-0.3,1c-0.8,2.7-1.3,5.5-1.4,8.4c0,0.2,0,0.4,0,0.5
			c0,0.2,0,0.3,0,0.5c0,0,0,0,0,0c0.1,5.5,1.7,10.7,4.4,15.1c0.2,0.3,0.4,0.6,0.6,0.9c2.5,3.7,5.7,6.8,9.6,9.1
			c0.3,0.2,0.6,0.4,0.9,0.5c0.6,0.3,1.1,0.6,1.7,0.9c1.1,0.5,2.2,1,3.4,1.3c1.1,0.4,2.3,0.7,3.5,0.9C95,125.8,97,126,99,126
			c2,0,3.9-0.2,5.7-0.6c0.1,0,0.2,0,0.3-0.1C106.2,125.1,107.3,124.8,108.5,124.4z"/>
	</g>
	<g id="XMLID_204_">
		<path class="st0" d="M104.6,75.8c-1.8-0.5-3.7-0.8-5.6-0.8c-1.7,0-3.4,0.2-5,0.6c-0.3,0.1-0.7,0.2-1,0.3c-0.6,0.2-1.3,0.4-1.9,0.6
			c-0.3,0.1-0.6,0.3-0.9,0.4c-7.3,3.3-12.4,10.7-12.4,19.2c0,11.7,9.5,21.1,21.1,21.1c11.7,0,21.1-9.5,21.1-21.1
			c0-8.6-5.1-15.9-12.5-19.3c-0.3-0.1-0.6-0.3-0.9-0.4c-0.4-0.1-0.7-0.3-1.1-0.4C105.3,75.9,104.9,75.8,104.6,75.8z M119.1,96.1
			c0,11.1-9,20.1-20.1,20.1c-11.1,0-20.1-9-20.1-20.1C78.9,85,87.9,76,99,76C110.1,76,119.1,85,119.1,96.1z"/>
	</g>
</g>
</svg>
